<?xml version="1.0" encoding="UTF-8"?>
<!DOCTYPE svg PUBLIC "-//W3C//DTD SVG 1.1//EN" "http://www.w3.org/Graphics/SVG/1.1/DTD/svg11.dtd">
<svg xmlns="http://www.w3.org/2000/svg" version="1.1" xmlns:xlink="http://www.w3.org/1999/xlink" width="719.17236" height="357.30109">
  <path d="m 346.98732,216.37905 h -0.017 c -1.604,0 -3.019,0.528 -4.349,1.603 -0.989,0.784 -1.671,1.842 -2.217,3.019 h 0.068 c 0.545,-1.177 1.228,-2.234 2.199,-3.019 1.332,-1.075 2.748,-1.586 4.316,-1.603 z" style="fill: #BB2025;"/>
  <path d="m 80.477319,10.93505 -59.31,258.767 c 0.017,0 0.019,0 0.053,0 h 274.381001 142.706 c -17.002,-1.483 -30.424,-7.451 -38.422,-18.331 -1.482,-2.012 -2.709,-4.18 -3.783,-6.447 -0.682,-1.672 -1.324,-3.357 -1.971,-5.062 -1.705,-5.423 -2.387,-11.44 -2.078,-17.852 0.852,-17.871 9.236,-39.128 23.766,-61.388 15.432,-23.657 37.799,-48.451 65.492,-71.46 6.207,-5.153 12.625,-10.242 19.344,-15.188 8.303,-6.109 16.672,-11.736 25.045,-16.998 30.848,-19.421 61.617,-33.011 88.885,-39.913 -26.057,8.5 -55.328,22.932 -84.248,42.577 -1.041,0.702 -2.068,1.422 -3.092,2.132 -16.047,11.117 -30.582,22.926 -43.27,34.85 -40.824,38.385 -62.4,78.159 -52.596,101.461 0.699,1.604 1.533,3.134 2.504,4.583 10.539,15.5 36.656,18.18 69.754,9.858 2.252,-0.562 4.502,-1.2 6.822,-1.865 10.572,-3.053 21.797,-7.175 33.357,-12.256 2.779,-1.229 5.59,-2.49 8.42,-3.837 0.289,-0.137 0.562,-0.273 0.854,-0.427 36.49,-18.132 64.535,-38.994 70.605,-51.529 1.33,-2.727 1.65,-5.052 0.746,-6.874 -4.33,-8.782 -34.639,-2.85 -71.352,13.056 -2.951,1.278 -5.936,2.595 -8.953,3.996 2.455,-2.279 5.012,-4.568 7.621,-6.82 4.16,-3.585 8.467,-7.09 13.055,-10.552 7.18,-5.436 14.438,-10.351 21.582,-14.707 33.457,-25.241 50.369,-49.117 46.84,-57.978 -0.664,-1.67 -2.08,-2.818 -4.264,-3.518 -6.975,-2.218 -19.703,0.43 -35.17,6.768 -12.754,5.232 -27.404,12.991 -42.258,22.647 l -2.023,1.333 -0.373,0.213 -7.141,4.742 4.102,-7.514 c 6.088,-11.144 16.004,-22.771 28.35,-33.571 9.055,-7.896 19.4,-15.338 30.535,-21.848 4.211,-2.466 8.416,-4.756 12.629,-6.821 4.314,-2.107 8.631,-3.98 12.842,-5.648 12.238,-4.84 23.918,-7.78 34.105,-8.579 -0.928,0 -28.615,0 -28.615,0 h -96.453 -425.292 -33.731001 z m 305.980001,0.373 c -1.672,25.505 3.273,62.861 14.494,104.338 1.994,7.38 4.168,14.891 6.555,22.487 1.484,4.691 3.014,9.309 4.582,13.855 -0.92,1.354 -1.848,2.699 -2.717,4.05 -14,21.455 -22.184,41.73 -24.246,59.363 -5.918,-19.815 -10.373,-41.519 -12.896,-64.532 -0.717,-6.595 -1.277,-13.114 -1.652,-19.557 -2.763,-46.796 3.347,-89.217 15.88,-120.004 z m -279.39,33.198 c 0.319,-0.008 0.634,0 0.959,0 h 63.04 c 5.389,0 9.556,1.01 12.522,3.037 2.95,2.04 4.057,4.678 3.357,7.887 l -7.514,33.944 h -22.221 l 7.3,-33.038 h -55.633 l -20.090001,90.803 -7.247,32.879 h 55.580001 l 0.053,-0.213 11.138,-50.305 h -26.11 l 2.505,-11.35 h 48.332 l -13.855,62.773 c -0.188,0.894 -0.516,1.703 -0.959,2.504 -1.143,2.081 -3.135,3.862 -5.915,5.329 -3.854,2.029 -8.466,3.037 -13.854,3.037 H 75.469319 c -5.389,0 -9.556,-1.008 -12.523,-3.037 -2.95,-2.029 -4.073,-4.621 -3.356,-7.833 l 27.763,-125.494 c 0.716,-3.209 2.95,-5.847 6.821,-7.887 0.136,-0.073 0.289,-0.09 0.426,-0.16 3.531,-1.769 7.677001,-2.763 12.467001,-2.876 z m 98.796,0 h 79.347 c 5.32,0 9.502,1.01 12.469,3.037 2.984,2.04 4.127,4.678 3.411,7.887 l -14.814,66.93 c -0.699,3.189 -2.986,5.791 -6.874,7.834 -3.888,2.05 -8.465,3.091 -13.802,3.091 h -57.659 l -11.137,50.25 -1.812,8.26 h -21.741 l 1.652,-7.46 30.96,-139.829 z m 109.614,0 h 21.741 l -24.619,111.212 -5.382,24.3 h 52.009 c 0.546,3.988 1.184,7.906 1.865,11.776 h -78.227 l 6.181,-27.923 26.432,-119.365 z m -90.483,11.83 -14.441,65.118 h 54.194 l 14.388,-65.118 h -54.141 z m -45.561,145.69 c 0.213,-0.007 0.425,0 0.64,0 2.523,0 4.728,0.443 6.501,1.279 1.893,0.887 3.246,2.204 3.997,3.943 0.732,1.688 0.925,3.604 0.532,5.701 l -0.16,0.8 h -6.234 l 0.054,-0.746 c 0.161,-1.466 -0.021,-2.618 -0.587,-3.41 -0.073,-0.1 -0.18,-0.23 -0.266,-0.32 -0.141,-0.144 -0.353,-0.308 -0.533,-0.426 -0.872,-0.55 -2.237,-0.853 -3.997,-0.853 -2.336,0 -4.081,0.407 -5.275,1.226 -1.159,0.801 -1.893,1.696 -2.131,2.771 -0.239,1.092 0.153,1.665 0.426,1.972 0.009,0.009 0.043,0.044 0.054,0.054 0.345,0.294 1.545,0.984 5.275,1.865 3.376,0.818 5.612,1.554 6.874,2.185 1.91,0.972 3.244,2.231 3.943,3.783 0.699,1.535 0.853,3.332 0.426,5.275 -0.426,1.894 -1.392,3.639 -2.824,5.275 -1.415,1.638 -3.216,2.934 -5.382,3.837 -2.148,0.887 -4.506,1.386 -6.928,1.386 -3.069,0 -5.533,-0.465 -7.46,-1.386 -2.012,-0.955 -3.464,-2.462 -4.316,-4.423 -0.818,-1.91 -0.993,-4.077 -0.533,-6.447 l 0.16,-0.746 h 6.128 l -0.053,0.746 c -0.153,1.415 -0.002,2.558 0.373,3.41 0.357,0.818 1.04,1.496 2.131,2.024 1.16,0.563 2.609,0.853 4.264,0.853 1.483,0 2.839,-0.249 4.05,-0.692 1.193,-0.426 2.143,-0.989 2.824,-1.705 0.665,-0.716 1.055,-1.473 1.226,-2.291 0.171,-0.733 0.13,-1.354 -0.16,-1.865 -0.323,-0.546 -0.965,-1.029 -1.972,-1.439 l -5.222,-1.545 c -2.916,-0.733 -4.879,-1.433 -6.021,-2.132 -1.552,-0.921 -2.671,-2.102 -3.251,-3.517 -0.58,-1.398 -0.642,-2.948 -0.267,-4.636 0.393,-1.808 1.265,-3.528 2.611,-5.062 1.364,-1.552 3.125,-2.77 5.223,-3.57 1.853,-0.697 3.804,-1.105 5.86,-1.174 z m 55.952,0.106 c 0.338,-0.026 0.654,0 1.013,0 l 3.837,0.427 1.279,0.106 -1.865,4.742 -0.373,0.746 -2.931,-0.266 c -0.866,0 -1.502,0.133 -1.919,0.426 -0.027,0.021 -0.081,0.084 -0.106,0.106 -0.056,0.049 -0.149,0.135 -0.213,0.214 -0.257,0.336 -0.569,0.938 -0.8,2.024 0,0 -0.11,0.461 -0.213,0.853 1.348,0 4.583,0 4.583,0 l -1.173,5.275 c 0,0 -3.351,0 -4.476,0 -0.342,1.535 -4.529,20.303 -4.529,20.303 -0.001,0 -6.182,0 -6.182,0 0,0 4.018,-18.034 4.529,-20.303 -1.04,0 -3.57,0 -3.57,0 l 1.172,-5.275 c 0,0 2.546,0 3.518,0 0.17,-0.733 0.426,-1.651 0.426,-1.651 0.376,-1.706 0.768,-2.932 1.279,-3.784 0.699,-1.177 1.686,-2.161 2.931,-2.877 1.025,-0.595 2.322,-0.952 3.783,-1.066 z m 14.761,0.267 c -0.001,0 -1.616,7.271 -2.025,9.112 1.193,0 3.996,0 3.996,0 l -1.172,5.275 c 0,0 -2.939,0 -3.997,0 -0.323,1.467 -2.877,12.843 -2.877,12.843 0,0 -0.213,1.366 -0.213,1.759 0,0.013 -0.002,0.043 0,0.053 0,0.004 -0.002,0.05 0,0.054 0.001,0.003 0.051,-0.002 0.053,0 l 0.64,0.053 2.931,-0.213 -0.319,4.743 0.053,0.853 -4.209,0.479 c -1.672,0 -2.897,-0.273 -3.784,-0.853 -0.938,-0.614 -1.483,-1.429 -1.705,-2.451 -0.034,-0.188 -0.106,-0.461 -0.106,-0.853 0,-0.768 0.145,-2.066 0.64,-4.316 0,0 2.24,-10.036 2.718,-12.15 -0.802,0 -2.931,0 -2.931,0 l 1.172,-5.275 c 0,0 2.078,0 2.931,0 0.273,-1.228 1.226,-5.436 1.226,-5.436 l 4.956,-2.611 c -0.003,0 2.022,-1.066 2.022,-1.066 z m -196.367001,0.213 h 23.979 l -1.332,5.969 c 0,0 -15.997,0 -17.532,0 -0.272,1.211 -1.366,6.113 -1.759,7.887 2.217,0 15.188,0 15.188,0 l -1.332,5.968 c 0,0 -13.652,0 -15.188,0 -0.323,1.484 -3.25,14.654 -3.25,14.654 h -6.448 l 7.674,-34.478 z m 32.133,8.419 c 0.24,-0.029 0.503,0 0.746,0 1.534,0 2.952,0.467 4.316,1.438 l 0.853,0.587 -3.304,5.435 -0.906,-0.639 c -0.665,-0.427 -1.382,-0.64 -2.132,-0.64 -0.647,0 -1.251,0.23 -1.865,0.64 -0.647,0.426 -1.189,0.991 -1.599,1.758 -0.716,1.313 -1.24,2.784 -1.599,4.37 l -2.877,13.108 h -6.182 l 5.702,-25.578 h 5.755 c 0,0 -0.198,0.776 -0.267,1.065 0.272,-0.204 0.561,-0.485 0.8,-0.639 0.827,-0.491 1.7,-0.799 2.559,-0.905 z m 18.331001,0 c 0.372,-0.028 0.738,0 1.119,0 3.479,0 6.11,1.22 7.833,3.624 1.074,1.552 1.652,3.47 1.652,5.755 0,1.262 -0.156,2.619 -0.479,4.104 l -0.48,1.864 c 0,0 -15.632001,0 -17.371001,0 -0.034,0.358 -0.054,0.742 -0.054,1.066 0,1.33 0.272,2.376 0.853,3.144 0.275,0.375 0.595,0.713 0.959,0.959 0.688,0.448 1.573,0.693 2.611001,0.693 1.262,0 2.37,-0.348 3.41,-1.013 0.989,-0.631 1.936,-1.64 2.771,-3.037 h 6.607 l -0.586,1.278 c -1.262,2.558 -3.022,4.553 -5.223,5.969 -2.199,1.415 -4.827,2.185 -7.727,2.185 -3.769001,0 -6.573001,-1.219 -8.312001,-3.624 -1.723,-2.353 -2.094,-5.605 -1.173,-9.698 0.921,-4.16 2.759,-7.485 5.436,-9.805 2.4,-2.081 5.123001,-3.234 8.154001,-3.464 z m 27.763,0 c 0.372,-0.028 0.739,0 1.119,0 3.479,0 6.111,1.22 7.834,3.624 1.074,1.552 1.651,3.47 1.651,5.755 0,1.245 -0.155,2.583 -0.479,4.05 l -0.479,1.918 c 0,0 -15.633,0 -17.372,0 -0.017,0.239 -0.036,0.454 -0.054,0.693 -0.013,0.089 0.006,0.226 0,0.319 0,0.016 0,0.038 0,0.054 0,0.256 0.037,0.507 0.054,0.746 0.085,0.972 0.339,1.784 0.8,2.397 0.087,0.119 0.17,0.267 0.266,0.373 0.781,0.836 1.887,1.279 3.305,1.279 1.262,0 2.387,-0.348 3.41,-1.013 0.989,-0.631 1.936,-1.64 2.771,-3.037 h 6.661 l -0.64,1.278 c -1.262,2.558 -3.022,4.553 -5.222,5.969 -2.2,1.415 -4.828,2.185 -7.727,2.185 -3.769,0 -6.574,-1.219 -8.313,-3.624 -1.125,-1.534 -1.651,-3.489 -1.651,-5.808 0,-0.358 0.019,-0.744 0.053,-1.119 0.068,-0.887 0.205,-1.782 0.427,-2.771 0.921,-4.144 2.704,-7.485 5.382,-9.805 2.397,-2.08 5.174,-3.233 8.204,-3.463 z m 75.616,0 c 0.381,-0.029 0.731,0 1.119,0 3.547,0 6.273,1.2 8.047,3.57 1.756,2.37 2.183,5.567 1.278,9.592 -0.699,3.138 -1.709,5.672 -3.091,7.514 -1.381,1.842 -3.142,3.347 -5.222,4.37 -2.063,1.022 -4.248,1.545 -6.448,1.545 -3.615,0 -6.308,-1.236 -8.047,-3.624 -1.125,-1.518 -1.705,-3.472 -1.705,-5.808 0,-1.263 0.139,-2.603 0.479,-4.104 1.023,-4.57 3.112,-8.051 6.182,-10.284 2.254,-1.626 4.742,-2.565 7.408,-2.771 z m 93.627,0 c 0.45,-0.027 0.866,0 1.333,0 2.148,0 3.836,0.218 5.115,0.746 1.364,0.546 2.332,1.317 2.878,2.238 0.528,0.869 0.799,1.938 0.799,3.25 l -0.64,3.891 -1.172,5.275 c -1.006,4.502 -1.228,6.189 -1.279,6.821 -0.051,0.853 0.028,1.684 0.267,2.451 l 0.427,1.385 h -6.288 l -0.267,-0.799 c -0.103,-0.375 -0.072,-0.853 -0.106,-1.279 -1.194,0.733 -2.39,1.384 -3.464,1.759 -1.586,0.546 -3.231,0.853 -4.902,0.853 -2.899,0 -5.046,-0.755 -6.342,-2.238 -0.989,-1.091 -1.438,-2.426 -1.438,-3.943 0,-0.579 0.076,-1.181 0.213,-1.812 0.29,-1.296 0.816,-2.496 1.652,-3.57 0.818,-1.058 1.786,-1.927 2.877,-2.558 1.058,-0.631 2.236,-1.079 3.464,-1.386 l 3.783,-0.64 c 2.916,-0.341 5.093,-0.765 6.661,-1.226 0.034,-0.17 0.106,-0.373 0.106,-0.373 0.248,-1.097 0.217,-1.922 -0.053,-2.345 -0.02,-0.027 -0.084,-0.083 -0.106,-0.106 -0.058,-0.062 -0.146,-0.158 -0.214,-0.213 -0.641,-0.508 -1.734,-0.746 -3.197,-0.746 -1.653,0 -2.877,0.271 -3.729,0.799 -0.836,0.529 -1.609,1.497 -2.292,2.878 h -6.447 l 0.586,-1.279 c 0.768,-1.773 1.682,-3.244 2.824,-4.369 1.143,-1.126 2.686,-1.997 4.477,-2.611 1.37,-0.453 2.869,-0.754 4.474,-0.853 z m 27.018,0 c 0.24,-0.029 0.504,0 0.746,0 1.552,0 3.005,0.467 4.369,1.438 l 0.8,0.587 -3.304,5.435 -0.906,-0.639 c -0.665,-0.427 -1.345,-0.64 -2.078,-0.64 -0.648,0 -1.287,0.23 -1.919,0.64 -0.647,0.426 -1.118,0.991 -1.545,1.758 -0.699,1.313 -1.24,2.784 -1.599,4.37 l -2.931,13.108 h -6.182 l 5.702,-25.578 h 5.755 c 0,0 -0.145,0.776 -0.213,1.065 0.272,-0.204 0.543,-0.485 0.799,-0.639 0.813,-0.491 1.646,-0.799 2.506,-0.905 z m 18.277,0 c 0.372,-0.028 0.739,0 1.119,0 3.479,0 6.128,1.22 7.834,3.624 1.091,1.552 1.651,3.47 1.651,5.755 0,1.262 -0.209,2.619 -0.532,4.104 l -0.427,1.864 c 0,0 -15.649,0 -17.372,0 -0.034,0.358 -0.106,0.742 -0.106,1.066 0,1.33 0.29,2.376 0.853,3.144 0.088,0.119 0.223,0.267 0.319,0.373 0.057,0.06 0.154,0.158 0.214,0.213 0.762,0.693 1.8,1.066 3.091,1.066 1.262,0 2.37,-0.348 3.41,-1.013 0.989,-0.631 1.918,-1.64 2.771,-3.037 h 6.661 l -0.639,1.278 c -1.263,2.558 -3.04,4.553 -5.223,5.969 -2.217,1.415 -4.811,2.185 -7.727,2.185 -3.769,0 -6.521,-1.219 -8.26,-3.624 -1.723,-2.353 -2.13,-5.605 -1.226,-9.698 0.921,-4.16 2.705,-7.485 5.382,-9.805 2.416,-2.081 5.18,-3.234 8.207,-3.464 z m -93.308,0.48 h 6.342 c 0,0 0.782,15.179 0.799,15.4 0.256,-0.544 0.455,-1.001 0.479,-1.065 0.001,0 6.981,-14.335 6.981,-14.335 h 5.809 c 0,0 0.532,14.995 0.532,15.081 0.171,-0.308 7.94,-15.081 7.94,-15.081 h 6.288 l -13.855,25.578 h -5.701 c 0,0 -0.553,-13.869 -0.587,-14.654 -2.353,4.826 -7.141,14.654 -7.141,14.654 h -5.861 l -2.025,-25.578 z m -148.886,4.85 c -1.469,0.062 -2.803,0.591 -4.05,1.599 -0.989001,0.784 -1.656001,1.86 -2.185001,3.037 h 10.497001 c 0.018,-0.188 0.054,-0.416 0.054,-0.586 0,-0.972 -0.173,-1.727 -0.479,-2.238 -0.751,-1.228 -1.863,-1.812 -3.518,-1.812 -0.099,0 -0.222,-0.004 -0.319,0 z m 27.762,0 c -1.469,0.062 -2.803,0.591 -4.05,1.599 -0.988,0.784 -1.639,1.86 -2.185,3.037 h 10.498 c 0.017,-0.188 0.053,-0.416 0.053,-0.586 0,-0.972 -0.155,-1.727 -0.479,-2.238 -0.148,-0.249 -0.351,-0.497 -0.532,-0.692 -0.713,-0.736 -1.692,-1.119 -2.984,-1.119 -0.1,-0.001 -0.222,-0.005 -0.321,-0.001 z m 214.752,0 c -1.511,0.046 -2.922,0.558 -4.21,1.599 -0.972,0.784 -1.64,1.86 -2.185,3.037 h 10.444 c 0.017,-0.188 0.053,-0.416 0.053,-0.586 0,-0.972 -0.155,-1.727 -0.479,-2.238 -0.733,-1.211 -1.862,-1.795 -3.517,-1.812 -0.048,0 -0.057,-0.002 -0.106,0 z m -139.615,0.106 c -1.409,0.167 -2.721,0.811 -3.943,1.918 -1.467,1.33 -2.53,3.419 -3.144,6.182 -0.256,1.159 -0.373,2.15 -0.373,3.037 0,1.211 0.232,2.162 0.692,2.878 0.122,0.184 0.285,0.378 0.427,0.533 0.758,0.805 1.816,1.226 3.144,1.226 1.723,0 3.24,-0.642 4.689,-1.972 1.467,-1.348 2.513,-3.458 3.144,-6.288 0.58,-2.592 0.499,-4.527 -0.319,-5.755 -0.784,-1.194 -1.932,-1.759 -3.517,-1.759 -0.27,0 -0.539,-0.031 -0.8,0 z m 96.292,9.325 c -1.449,0.393 -3.074,0.723 -5.223,1.013 -1.603,0.238 -2.745,0.49 -3.41,0.746 -0.58,0.238 -1.047,0.569 -1.438,1.013 -0.376,0.426 -0.627,0.874 -0.746,1.385 -0.034,0.205 -0.054,0.416 -0.054,0.587 0,0.014 0,0.039 0,0.053 0.002,0.041 -0.005,0.121 0,0.16 0.011,0.077 0.032,0.194 0.054,0.267 0.007,0.023 0.044,0.083 0.053,0.106 0.019,0.046 0.03,0.116 0.054,0.16 0.024,0.043 0.078,0.118 0.106,0.159 0.045,0.062 0.105,0.156 0.16,0.213 0.426,0.478 1.276,0.693 2.504,0.693 1.348,0 2.644,-0.256 3.837,-0.853 1.177,-0.58 2.125,-1.445 2.824,-2.451 0.511,-0.717 0.921,-1.818 1.279,-3.251 z" style="fill: #BB2025;"/>
  <path d="m 347.03832,216.37905 c -0.017,0 -0.034,0 -0.051,0 1.654,0.017 2.745,0.58 3.479,1.79 0.324,0.512 0.494,1.279 0.494,2.251 0,0.171 -0.033,0.393 -0.051,0.58 h 0.068 c 0,-0.188 0.034,-0.409 0.034,-0.58 0,-0.972 -0.153,-1.739 -0.478,-2.251 -0.732,-1.227 -1.841,-1.79 -3.495,-1.79 z" style="fill: #BB2025;"/>
  <path d="m 0,357.29917 h 12.720941 l 5.712487,-23.87308 h 20.667267 l 2.660143,-10.23132 H 21.00831 l 3.444545,-15.34698 h 22.082599 l 2.660145,-11.93654 H 14.323848 L 0,357.29917 z" style="fill: #BB2025;"/>
  <path d="m 57.056699,357.29897 3.8197,-16.02906 c 2.01216,-8.67957 6.25815,-16.37012 14.28974,-16.37012 0.71619,0 1.41533,0.3581 1.94395,0.44336 l 3.1035,-12.29464 c -0.71619,0 -1.50059,-0.0853 -2.38731,-0.0853 -5.91711,0 -10.8793,4.16074 -14.18743,10.12901 h -0.34104 c 0.49451,-2.91593 0.92082,-5.67838 1.24481,-8.42379 h -10.96457 c -0.63093,3.54686 -1.6029,10.48711 -3.08644,16.74526 L 44.2505,357.29893 h 12.806199 z" style="fill: #BB2025;"/>
  <path d="m 113.63621,345.78874 c -3.5298,1.72227 -7.55412,1.27891 -12.24348,1.27891 -3.700321,0 -6.565091,-0.64798 -8.133891,-1.90984 -0.81851,-1.38123 -1.15955,-3.52981 -1.09135,-4.91104 17.273881,0.46041 28.170241,-3.5298 28.715911,-14.44321 0.40925,-8.23621 -5.61017,-12.84031 -14.35795,-12.84031 -15.619821,0 -25.851141,13.77818 -26.516171,27.04479 -0.57978,11.57845 5.4226,17.28923 17.80249,17.28923 4.757571,0 11.066881,-0.54567 16.233701,-2.09742 l -0.40926,-9.41111 z m -4.6723,-19.98518 c -0.20463,4.05842 -5.21797,4.29715 -15.091201,4.21189 1.07429,-3.56391 4.68936,-6.82088 10.606471,-6.82088 2.91593,0.002 4.58704,1.1101 4.48473,2.60899 z" style="fill: #BB2025;"/>
  <path d="m 158.84116,345.78874 c -3.5298,1.72227 -7.55412,1.27891 -12.22643,1.27891 -3.71738,0 -6.56509,-0.64798 -8.13389,-1.90984 -0.81851,-1.38123 -1.17661,-3.52981 -1.1084,-4.91104 17.29093,0.46041 28.17024,-3.5298 28.73296,-14.44321 0.40925,-8.23621 -5.61017,-12.84031 -14.35795,-12.84031 -15.63687,0 -25.86819,13.77818 -26.53323,27.04479 -0.56272,11.57845 5.43966,17.28923 17.8025,17.28923 4.77462,0 11.08393,-0.54567 16.25075,-2.09742 l -0.42631,-9.41111 z m -4.65525,-19.98518 c -0.20463,4.05842 -5.21797,4.29715 -15.10825,4.21189 1.09134,-3.56391 4.68936,-6.82088 10.60647,-6.82088 2.91593,0.002 4.60409,1.1101 4.50178,2.60899 z" style="fill: #BB2025;"/>
  <path d="m 224.6632,357.29897 c 0.10232,-5.40554 1.39828,-13.89754 2.74541,-19.4719 l 5.47375,-23.15689 c -3.47864,-1.1766 -8.90124,-1.70522 -14.11922,-1.70522 -21.17883,0 -31.68299,15.68802 -32.41623,30.38702 -0.46041,9.22524 4.53589,13.9487 12.31169,13.9487 5.0304,0 10.70878,-2.43676 15.1253,-9.77091 h 0.18757 c -0.34104,3.5298 -0.75029,6.9573 -0.97197,9.77091 h 11.6637 z m -8.74777,-24.34883 c -2.48963,10.8452 -7.57118,14.11922 -11.35677,14.11922 -3.52981,0 -5.06621,-2.50667 -4.85988,-6.15585 0.40926,-8.23621 6.9232,-17.71723 15.14236,-17.71723 1.33007,0 2.37025,-0.23873 3.34223,-0.47746 l -2.26794,10.23132 z" style="fill: #BB2025;"/>
  <path d="m 233.0015,355.28681 c 2.45552,1.90985 7.60528,1.9269 12.97673,2.01216 11.47613,0.0853 20.13864,-4.92808 20.65021,-14.13627 0.28989,-6.13879 -4.46768,-9.77091 -9.12293,-12.20938 -3.35928,-1.61995 -5.04745,-3.1717 -4.96219,-4.97924 0.11937,-2.43846 2.40436,-2.77951 5.76365,-2.77951 3.78558,0 6.82088,0.46041 8.5602,0.80146 l 3.44454,-9.2423 c -1.961,-1.1766 -5.883,-1.79048 -10.9134,-1.79048 -11.13509,0 -19.28604,5.88301 -19.74645,14.81837 -0.27284,5.52491 3.70033,9.24229 8.50905,11.76601 3.8879,1.99511 5.21797,3.52981 5.11566,5.69544 -0.11937,2.18268 -2.06332,1.82458 -5.59312,1.82458 -4.14369,0 -8.73073,-0.54567 -11.15214,-0.92082 l -3.52981,9.13998 z" style="fill: #BB2025;"/>
  <path d="m 301.03939,357.29939 10.31658,-42.6305 h -12.63568 l -10.38479,42.6305 h 12.70389 z m 5.91711,-47.74616 c 4.33126,0 8.18506,-3.58096 8.42379,-9.71975 0.20463,-4.16074 -2.48962,-5.62723 -6.46278,-5.62723 -4.14369,0 -7.92928,2.69255 -8.15096,6.71857 -0.20462,4.05842 2.48963,8.62841 6.18995,8.62841 z" style="fill: #BB2025;"/>
  <path d="m 325.42444,357.29937 4.50178,-19.20078 c 2.33615,-9.77091 7.36655,-13.1984 11.51024,-13.1984 3.27402,0 4.22894,1.39828 4.07547,3.42749 -0.0853,1.63702 -0.34104,3.35929 -0.68208,4.89399 l -5.72954,24.0777 h 12.72094 l 6.03648,-25.25431 c 0.46041,-2.18268 0.97197,-5.43965 1.07429,-7.4177 0.37514,-7.69055 -3.4616,-10.48711 -10.52121,-10.48711 -5.66133,0 -11.16919,2.62604 -15.5175,8.32148 h -0.17053 l 1.15955,-7.79286 h -11.22034 c -0.73325,3.64917 -1.67112,8.06569 -3.00119,13.21546 l -6.9573,29.41504 h 12.72094 z" style="fill: #BB2025;"/>
  <path d="m 380.1625,357.29917 h 12.72094 l 5.72784,-23.87308 h 20.65021 l 2.66014,-10.23132 h -20.75252 l 3.44454,-15.34698 h 22.0826 l 2.66014,-11.93654 h -34.87175 l -14.32214,61.38792 z" style="fill: #BB2025;"/>
  <path d="m 437.2187,357.29897 3.81799,-16.02906 c 2.01216,-8.67957 6.25816,-16.37012 14.29145,-16.37012 0.71449,0 1.41363,0.3581 1.94395,0.44336 l 3.1035,-12.29464 c -0.71619,0 -1.50059,-0.0853 -2.38731,-0.0853 -5.91711,0 -10.88101,4.16074 -14.18743,10.12901 h -0.34104 c 0.49451,-2.91593 0.91911,-5.67838 1.24481,-8.42379 h -10.96286 c -0.61558,3.54686 -1.60291,10.48711 -3.08815,16.74526 l -6.2394,25.88524 h 12.80449 z" style="fill: #BB2025;"/>
  <path d="m 493.79651,345.78874 c -3.52981,1.72227 -7.55242,1.27891 -12.24178,1.27891 -3.70203,0 -6.5668,-0.64798 -8.1356,-1.90984 -0.81851,-1.38123 -1.15955,-3.52981 -1.09134,-4.91104 17.27558,0.46041 28.17023,-3.5298 28.71761,-14.44321 0.40755,-8.23621 -5.61188,-12.84031 -14.35795,-12.84031 -15.62152,0 -25.85114,13.77818 -26.51788,27.04479 -0.57977,11.57845 5.43965,17.28923 17.8025,17.28923 4.75756,0 11.08393,-0.54567 16.23369,-2.09742 l -0.40925,-9.41111 z m -4.6706,-19.98518 c -0.20463,4.05842 -5.21797,4.29715 -15.0912,4.21189 1.07429,-3.56391 4.68936,-6.82088 10.60818,-6.82088 2.91422,0.002 4.58363,1.1101 4.48302,2.60899 z" style="fill: #BB2025;"/>
  <path d="m 539.00146,345.78874 c -3.52981,1.72227 -7.55242,1.27891 -12.22643,1.27891 -3.71738,0 -6.5651,-0.64798 -8.13219,-1.90984 -0.81851,-1.38123 -1.17831,-3.52981 -1.1101,-4.91104 17.29093,0.46041 28.17023,-3.5298 28.73466,-14.44321 0.40755,-8.23621 -5.61188,-12.84031 -14.35966,-12.84031 -15.63687,0 -25.86648,13.77818 -26.53322,27.04479 -0.56272,11.57845 5.43965,17.28923 17.8025,17.28923 4.77461,0 11.08393,-0.54567 16.25245,-2.09742 l -0.42801,-9.41111 z m -4.65355,-19.98518 c -0.20463,4.05842 -5.21797,4.29715 -15.10995,4.21189 1.09134,-3.56391 4.68935,-6.82088 10.60817,-6.82088 2.91593,0.002 4.60409,1.1101 4.50178,2.60899 z" style="fill: #BB2025;"/>
  <path d="m 589.54447,294.20796 -4.79166,19.3713 c -1.74103,-0.71619 -4.00727,-0.61388 -5.7807,-0.61388 -16.33601,0 -27.89569,13.9828 -28.66475,29.12516 -0.51156,10.67467 5.18387,15.21056 12.51632,15.21056 5.13271,0 10.53826,-2.26794 14.63078,-8.1339 h 0.17053 l -0.97027,8.1339 h 11.55968 c 0.52862,-5.11566 1.63701,-11.2033 2.88353,-16.76231 l 11.06688,-46.33083 h -12.62034 z m -9.95678,41.63977 c -1.99681,8.40673 -6.70322,11.22034 -10.4206,11.22034 -3.70203,0 -5.76364,-2.57488 -5.50786,-7.16192 0.42631,-8.492 6.25816,-16.71116 13.84639,-16.71116 2.13323,0 3.95782,0.324 4.96219,0.80146 l -2.88012,11.85128 z" style="fill: #BB2025;"/>
  <path d="m 618.55189,357.29897 c 14.83541,0 26.27744,-11.2374 27.08059,-26.53322 0.49452,-10.12901 -5.8165,-17.8025 -17.46315,-17.8025 -15.38109,0 -26.41386,12.44811 -27.17951,27.48815 -0.53032,10.94751 6.52759,16.84757 17.56207,16.84757 z m 1.9951,-10.22961 c -4.33126,0 -6.71856,-2.76246 -6.46278,-6.88909 0.33934,-6.87204 4.58534,-16.98399 11.90243,-16.98399 5.04746,0 6.59921,3.87085 6.39458,7.67349 -0.37515,7.50126 -4.94514,16.19959 -11.83423,16.19959 z" style="fill: #BB2025;"/>
  <path d="m 661.43808,357.29897 4.6041,-19.4719 c 1.9269,-8.67957 6.73562,-14.63079 11.05153,-14.63079 3.1035,0 3.9544,2.26794 3.80264,5.23502 -0.0853,1.5347 -0.42801,3.25697 -0.7844,4.96219 l -5.69544,23.90548 h 12.27759 l 4.60409,-19.55887 c 2.11448,-8.9524 6.65036,-14.54553 10.88101,-14.54553 2.91593,0 4.12493,2.08037 3.99022,5.04745 -0.0853,1.72228 -0.44336,3.61507 -0.88672,5.33734 l -5.52491,23.71791 h 12.36284 l 5.95122,-25.25431 c 0.45871,-2.26794 0.98903,-5.79775 1.07429,-7.60528 0.37515,-7.50297 -3.29107,-11.47613 -9.90733,-11.47613 -5.65962,0 -11.16748,2.55783 -15.34698,7.94632 -0.15176,-3.8879 -2.93127,-7.94632 -9.82036,-7.94632 -5.57607,0 -10.89636,2.52372 -15.15941,8.23621 h -0.17052 l 1.1425,-6.53099 h -10.94751 c -0.7162,3.64917 -1.58586,8.06569 -2.91593,13.21545 l -6.85498,29.41505 h 12.27246 z" style="fill: #BB2025;"/>
  <path d="m 390.51432,242.88705 c 0.693,1.78 1.385,3.557 2.105,5.295 1.111,2.36 2.395,4.62 3.938,6.73 8.336,11.33 22.295,17.534 40.02,19.079 h 19.064 c 6.029,-0.47 12.346,-1.347 18.893,-2.628 11.291,-2.208 23.262,-5.6 35.693,-10.132 9.416,-3.434 19.094,-7.496 28.914,-12.218 21.387,-10.252 43.48,-23.476 65.156,-39.433 7.139,-5.251 13.988,-10.639 20.564,-16.117 6.027,-5.016 11.811,-10.109 17.334,-15.26 15.418,-14.856 27.055,-29.945 33.646,-43.194 6.863,-13.797 8.234,-25.594 2.609,-33.025 -3.447,-4.562 -9.215,-7.006 -16.643,-7.581 33.457,-25.104 52.955,-55.559 45.961,-74.759 -2.221,-6.128 -7.109,-10.6989999 -14.117,-13.2279999 -3.115,-1.12 -6.621,-1.83 -10.441,-2.153 h -10.297 c -14.379,1.037 -35.287,6.1859999 -53.025,14.8789999" style="fill: #BB2025; fill-opacity: 0; stroke: #BB2025; stroke-width: 8.5261;"/>
 </svg>